<svg width="132" height="37" viewBox="0 0 132 37" fill="none" xmlns="http://www.w3.org/2000/svg">
<g clip-path="url(#clip0_174_780)">
<path d="M24.7478 0C19.1587 0 14.6242 4.60112 14.6242 10.2724C14.6242 15.9437 19.1587 20.5448 24.7478 20.5448C30.3369 20.5448 34.8714 15.9437 34.8714 10.2724C34.8714 4.60112 30.3426 0 24.7478 0ZM21.0198 18.2214C20.7717 18.0783 20.5968 17.8723 20.5235 17.4888C20.343 16.5331 20.5122 16.0181 21.3357 15.463C21.7248 15.1997 21.7869 14.8792 22.097 14.5645C22.1704 14.4672 22.379 14.0895 22.5144 14.0666C22.678 14.0323 23.1348 13.9522 23.225 13.769C23.3942 13.5344 23.7721 12.5157 23.9413 12.4127C24.212 12.2353 24.5955 11.6802 24.3135 11.354C23.9977 10.9591 23.5521 10.9534 23.1461 10.7417C22.7851 10.5585 22.6216 9.71729 22.3452 9.43115C21.8094 8.87604 20.9916 8.54985 20.3092 8.20648C19.9426 8.05769 19.9765 8.0119 19.6888 8.30377C19.3222 8.67575 18.7808 8.20648 18.7244 7.82305C18.7244 7.69715 18.5778 6.98752 18.6624 6.93602C19.4745 6.42097 18.2845 6.54115 18.1886 6.30079C17.9461 5.61406 18.7752 5.07039 19.3335 5.01316C19.9595 4.93304 20.0893 6.01465 20.3318 5.92309C20.4446 5.86586 20.4502 5.35653 20.4615 5.24207C20.5179 4.87582 20.625 4.81859 20.9747 4.68124C21.3864 4.52673 21.7023 4.33215 22.1365 4.25775C22.6328 4.10896 23.0558 4.18908 23.4393 3.86288C23.6142 3.73126 23.7439 3.93728 23.9074 3.97161C24.2684 4.04601 24.3474 3.46229 24.3474 3.24482C24.3474 3.03308 24.4038 2.84995 24.133 2.62104C23.7777 2.34062 23.2758 2.58098 22.9881 2.86712C22.6441 3.18759 22.2493 3.1647 22.3621 2.60959C22.3903 2.40357 22.8246 2.16894 22.9938 2.0602C23.163 1.95719 23.2589 2.17466 23.4619 2.12315C23.7608 2.05448 23.868 2.34062 24.2233 2.34062C24.3699 2.30628 24.8944 2.02587 24.6124 1.45359C24.6519 1.45359 24.697 1.45359 24.7365 1.45359C24.8211 1.45359 24.9057 1.45359 24.9903 1.45359C25.1144 1.85991 24.7196 2.209 24.9226 2.71832C25.3174 3.70264 25.6445 2.85567 26.0393 2.39785C26.169 2.26622 26.248 2.29484 26.4623 2.25478C26.592 2.23189 26.7838 1.83129 26.8402 1.70539C27.7482 1.9343 28.6111 2.30628 29.3951 2.81561C29.0567 2.84995 28.9721 2.75266 28.9777 3.15326C28.9777 3.30777 28.989 3.76559 29.2146 3.79993C29.5868 3.84571 29.5191 4.11468 29.8744 4.16047C30.2128 4.20625 30.0042 4.50956 30.1395 4.80714C30.2918 5.27641 29.2428 5.41948 29.0397 5.48815C28.425 5.69417 29.3274 6.60982 29.7278 6.51253C29.8575 6.4782 30.2805 6.42669 30.3087 6.2779C30.3087 6.26073 30.2241 5.77429 30.2692 5.71706C30.3369 5.63122 30.5005 5.57972 30.7543 5.72851C31.3577 6.0776 31.6623 6.9074 32.3786 7.07337C32.4744 7.09626 32.6436 7.06764 32.7621 7.16493C32.8636 7.30228 33.1174 7.54836 32.8128 7.54836C32.4068 7.45679 32.1924 7.58842 31.854 7.32517C31.5044 7.05048 31.2901 6.82729 30.8276 6.81584C30.4328 6.81012 30.0718 6.63843 29.6658 6.70711C29.4402 6.74717 29.2146 6.83873 28.9946 6.90168C28.7859 6.97036 28.7465 7.34806 28.5322 7.39384C27.6523 7.60559 27.8441 8.45828 27.6862 9.13357C27.6241 9.3911 27.4155 10.095 27.6467 10.3296C28.0584 10.7359 28.5378 11.2968 29.1469 11.3826C29.474 11.4284 30.1846 11.1709 30.4046 11.5085C30.5005 11.6974 30.743 11.3712 30.805 11.5371C30.9686 12.0407 30.6133 12.3727 30.6076 12.8477C30.6076 13.5458 31.025 13.7919 30.461 14.4157C29.8462 15.0395 30.2636 15.8292 29.9252 16.5732C29.7447 16.9566 29.7052 17.4831 29.4345 17.6605C28.8311 18.0497 28.1825 18.3644 27.5057 18.5933C26.3044 18.9997 25.0129 19.1313 23.7552 18.9825C23.0953 18.9081 22.4411 18.7479 21.8151 18.5189C21.6459 18.456 21.4879 18.4045 21.3413 18.3473C21.2341 18.3015 21.127 18.25 21.0198 18.1985V18.2214ZM19.1361 16.9795C19.1361 16.9795 19.0966 16.9452 19.0741 16.9223C18.9162 16.7849 18.7639 16.6419 18.6172 16.4931C18.465 16.3386 18.3183 16.1783 18.1773 16.0124C18.1491 15.9723 18.1209 15.938 18.0927 15.9036C15.7578 13.0422 15.4138 8.84743 17.3708 5.64267C17.6472 5.92309 17.1847 6.46675 17.7092 6.83301C17.9405 6.99897 18.1604 6.9303 18.1153 7.23933C18.0702 7.53691 18.3578 7.53119 18.3973 7.78871C18.527 8.36099 19.2658 8.64141 18.8428 9.28236C18.4311 9.86036 18.0758 10.507 18.386 11.2453C18.4875 11.5142 18.7413 11.7889 18.9387 11.9892C19.294 12.3555 19.2715 12.138 19.2715 12.5959C19.2658 12.7962 19.5083 13.0022 19.4858 13.1338C19.4407 13.5001 19.3561 13.8663 19.3109 14.2269C19.232 15.5374 19.3053 16.825 20.2754 17.8093C19.9144 17.5861 19.5704 17.34 19.2376 17.0596C19.2038 17.031 19.17 17.0024 19.1361 16.9738V16.9795Z" fill="#DC3C54"/>
<path d="M20.8506 0.743896L13.4511 20.8938H7.39952L0 0.743896H6.36178L10.4281 13.4428L14.5171 0.743896H20.8506Z" fill="#0B1215"/>
<path d="M36.0219 0.555176H41.487V15.2627H45.8804V20.4075H36.0219V0.555176Z" fill="#0B1215"/>
<path d="M47.2114 0.555176H59.574V5.39093H52.6765V8.06347H59.4951V12.6474H52.6765V15.5718H59.574V20.4075H47.2114V0.555176Z" fill="#0B1215"/>
<path d="M61.4634 0.555176H66.8777L73.138 11.4056V0.555176H78.4508V20.4075H72.9857L66.7536 9.58001V20.4075H61.4634V0.555176Z" fill="#0B1215"/>
<path d="M80.7236 0.555176H88.8225C90.8303 0.555176 92.5223 0.984385 93.8927 1.84853C95.2632 2.71267 96.2728 3.93734 96.9214 5.534C97.1921 6.22646 97.3951 6.97042 97.5361 7.77161C97.6715 8.56708 97.7392 9.47128 97.7392 10.4842C97.7392 11.4971 97.6715 12.4071 97.5361 13.214C97.4008 14.0209 97.1977 14.7706 96.9214 15.463C96.2728 17.054 95.2632 18.2787 93.8927 19.1313C92.5223 19.984 90.8303 20.4132 88.8225 20.4132H80.7236V0.555176ZM87.9314 15.32C88.8676 15.32 89.6234 15.1426 90.2043 14.7878C90.7852 14.4329 91.2194 13.9179 91.5071 13.2426C91.6594 12.905 91.7665 12.5158 91.8286 12.0751C91.8906 11.6345 91.9188 11.108 91.9188 10.4842C91.9188 9.86043 91.885 9.36255 91.8173 8.92189C91.7496 8.48124 91.6481 8.08064 91.5127 7.72583C91.2251 7.03337 90.7908 6.5126 90.2212 6.16351C89.6516 5.81442 88.8902 5.64273 87.937 5.64273H86.2V15.3142H87.937L87.9314 15.32Z" fill="#0B1215"/>
<path d="M110.434 17.1455H103.892L103.024 20.4075H97.3556L103.074 0.555176H111.224L116.949 20.4075H111.303L110.434 17.1455ZM109.261 12.7333L107.192 4.94455H107.141L105.071 12.7333H109.261Z" fill="#0B1215"/>
<path d="M119.91 11.8577L114.162 0.555176H120.039L122.645 6.20929L125.279 0.555176H131.127L125.403 11.8577V20.4075H119.91V11.8577Z" fill="#0B1215"/>
</g>
<path d="M86.5289 33.9454C85.991 33.9454 85.5068 33.8532 85.0764 33.6687C84.6461 33.4766 84.3079 33.2076 84.062 32.8618C83.8161 32.516 83.6931 32.1125 83.6931 31.6514H85.0995C85.1302 31.9972 85.2647 32.2816 85.503 32.5044C85.7489 32.7273 86.0909 32.8387 86.5289 32.8387C86.9823 32.8387 87.3359 32.7311 87.5895 32.516C87.8431 32.2931 87.9699 32.0087 87.9699 31.6629C87.9699 31.3939 87.8892 31.1749 87.7278 31.0058C87.5741 30.8368 87.3781 30.7061 87.1399 30.6139C86.9093 30.5217 86.5866 30.4218 86.1716 30.3142C85.649 30.1758 85.2225 30.0375 84.892 29.8992C84.5692 29.7532 84.2926 29.5303 84.062 29.2306C83.8314 28.9308 83.7162 28.5312 83.7162 28.0317C83.7162 27.5706 83.8314 27.1671 84.062 26.8213C84.2926 26.4755 84.6153 26.2103 85.0303 26.0259C85.4453 25.8414 85.9256 25.7492 86.4713 25.7492C87.2475 25.7492 87.8815 25.9452 88.3733 26.3371C88.8729 26.7214 89.1495 27.2517 89.2033 27.9279H87.7509C87.7278 27.6359 87.5895 27.3861 87.3359 27.1786C87.0823 26.9711 86.7479 26.8674 86.333 26.8674C85.9564 26.8674 85.649 26.9635 85.4107 27.1556C85.1725 27.3477 85.0534 27.6244 85.0534 27.9856C85.0534 28.2315 85.1264 28.4352 85.2724 28.5965C85.4261 28.7502 85.6182 28.8732 85.8488 28.9654C86.0793 29.0577 86.3944 29.1576 86.7941 29.2652C87.3243 29.4112 87.7547 29.5572 88.0852 29.7032C88.4233 29.8492 88.7077 30.0759 88.9382 30.3833C89.1764 30.6831 89.2956 31.0865 89.2956 31.5937C89.2956 32.0011 89.1841 32.3853 88.9613 32.7465C88.7461 33.1077 88.4271 33.3997 88.0045 33.6226C87.5895 33.8378 87.0976 33.9454 86.5289 33.9454Z" fill="#0B1215"/>
<path d="M92.3794 28.585V32.101C92.3794 32.3392 92.4332 32.5121 92.5408 32.6197C92.6561 32.7196 92.8482 32.7696 93.1172 32.7696H93.9241V33.8647H92.8866C92.2949 33.8647 91.8414 33.7264 91.5263 33.4497C91.2113 33.173 91.0537 32.7235 91.0537 32.101V28.585H90.3044V27.5129H91.0537V25.9337H92.3794V27.5129H93.9241V28.585H92.3794Z" fill="#0B1215"/>
<path d="M94.6973 30.66C94.6973 30.0221 94.8279 29.4573 95.0892 28.9654C95.3582 28.4736 95.7194 28.0932 96.1728 27.8242C96.6339 27.5475 97.1411 27.4092 97.6945 27.4092C98.194 27.4092 98.6282 27.5091 98.9971 27.7089C99.3737 27.901 99.6734 28.1431 99.8962 28.4352V27.5129H101.222V33.8647H99.8962V32.9194C99.6734 33.2191 99.3698 33.4689 98.9856 33.6687C98.6013 33.8685 98.1633 33.9684 97.6714 33.9684C97.1258 33.9684 96.6262 33.8301 96.1728 33.5534C95.7194 33.2691 95.3582 32.8772 95.0892 32.3776C94.8279 31.8704 94.6973 31.2979 94.6973 30.66ZM99.8962 30.6831C99.8962 30.245 99.804 29.8646 99.6196 29.5418C99.4428 29.219 99.2084 28.9731 98.9164 28.804C98.6244 28.635 98.3093 28.5504 97.9711 28.5504C97.633 28.5504 97.3179 28.635 97.0259 28.804C96.7338 28.9654 96.4956 29.2075 96.3111 29.5303C96.1344 29.8454 96.046 30.2219 96.046 30.66C96.046 31.0981 96.1344 31.4823 96.3111 31.8128C96.4956 32.1432 96.7338 32.3968 97.0259 32.5736C97.3256 32.7427 97.6407 32.8272 97.9711 32.8272C98.3093 32.8272 98.6244 32.7427 98.9164 32.5736C99.2084 32.4045 99.4428 32.1586 99.6196 31.8358C99.804 31.5054 99.8962 31.1211 99.8962 30.6831Z" fill="#0B1215"/>
<path d="M105.611 28.585H104.435V33.8647H103.109V28.585H102.36V27.5129H103.109V27.0634C103.109 26.3333 103.302 25.803 103.686 25.4725C104.078 25.1344 104.689 24.9653 105.519 24.9653V26.0605C105.119 26.0605 104.839 26.1373 104.677 26.291C104.516 26.437 104.435 26.6945 104.435 27.0634V27.5129H105.611V28.585Z" fill="#0B1215"/>
<path d="M109.438 28.585H108.263V33.8647H106.937V28.585H106.188V27.5129H106.937V27.0634C106.937 26.3333 107.129 25.803 107.513 25.4725C107.905 25.1344 108.516 24.9653 109.346 24.9653V26.0605C108.947 26.0605 108.666 26.1373 108.505 26.291C108.343 26.437 108.263 26.6945 108.263 27.0634V27.5129H109.438V28.585Z" fill="#0B1215"/>
<path d="M111.272 26.6714C111.033 26.6714 110.834 26.5907 110.672 26.4293C110.511 26.268 110.43 26.0681 110.43 25.8299C110.43 25.5917 110.511 25.3919 110.672 25.2305C110.834 25.0691 111.033 24.9884 111.272 24.9884C111.502 24.9884 111.698 25.0691 111.86 25.2305C112.021 25.3919 112.102 25.5917 112.102 25.8299C112.102 26.0681 112.021 26.268 111.86 26.4293C111.698 26.5907 111.502 26.6714 111.272 26.6714ZM111.917 27.5129V33.8647H110.603V27.5129H111.917Z" fill="#0B1215"/>
<path d="M116.847 27.4092C117.347 27.4092 117.793 27.5129 118.185 27.7204C118.584 27.9279 118.895 28.2353 119.118 28.6427C119.341 29.05 119.453 29.5418 119.453 30.1182V33.8647H118.15V30.3142C118.15 29.7455 118.008 29.3113 117.723 29.0115C117.439 28.7041 117.051 28.5504 116.559 28.5504C116.067 28.5504 115.675 28.7041 115.383 29.0115C115.099 29.3113 114.957 29.7455 114.957 30.3142V33.8647H113.643V27.5129H114.957V28.2392C115.172 27.9779 115.445 27.7742 115.775 27.6282C116.113 27.4822 116.471 27.4092 116.847 27.4092Z" fill="#0B1215"/>
<path d="M123.688 27.4092C124.18 27.4092 124.614 27.5091 124.991 27.7089C125.375 27.901 125.675 28.1431 125.89 28.4352V27.5129H127.215V33.9684C127.215 34.5525 127.093 35.0713 126.847 35.5247C126.601 35.9858 126.243 36.347 125.775 36.6083C125.313 36.8696 124.76 37.0002 124.115 37.0002C123.254 37.0002 122.539 36.7966 121.97 36.3893C121.402 35.9896 121.079 35.444 121.002 34.7523H122.305C122.405 35.0828 122.616 35.3479 122.939 35.5477C123.269 35.7552 123.661 35.859 124.115 35.859C124.645 35.859 125.071 35.6976 125.394 35.3748C125.725 35.052 125.89 34.5832 125.89 33.9684V32.9079C125.667 33.2076 125.363 33.4612 124.979 33.6687C124.603 33.8685 124.172 33.9684 123.688 33.9684C123.135 33.9684 122.627 33.8301 122.166 33.5534C121.713 33.2691 121.352 32.8772 121.083 32.3776C120.821 31.8704 120.691 31.2979 120.691 30.66C120.691 30.0221 120.821 29.4573 121.083 28.9654C121.352 28.4736 121.713 28.0932 122.166 27.8242C122.627 27.5475 123.135 27.4092 123.688 27.4092ZM125.89 30.6831C125.89 30.245 125.798 29.8646 125.613 29.5418C125.436 29.219 125.202 28.9731 124.91 28.804C124.618 28.635 124.303 28.5504 123.965 28.5504C123.627 28.5504 123.311 28.635 123.019 28.804C122.727 28.9654 122.489 29.2075 122.305 29.5303C122.128 29.8454 122.04 30.2219 122.04 30.66C122.04 31.0981 122.128 31.4823 122.305 31.8128C122.489 32.1432 122.727 32.3968 123.019 32.5736C123.319 32.7427 123.634 32.8272 123.965 32.8272C124.303 32.8272 124.618 32.7427 124.91 32.5736C125.202 32.4045 125.436 32.1586 125.613 31.8358C125.798 31.5054 125.89 31.1211 125.89 30.6831Z" fill="#0B1215"/>
<defs>
<clipPath id="clip0_174_780">
<rect width="131.127" height="20.8939" fill="white"/>
</clipPath>
</defs>
</svg>
