<svg width="200" height="18" viewBox="0 0 200 18" fill="none" xmlns="http://www.w3.org/2000/svg">
<g clip-path="url(#clip0_974_2891)">
<path d="M21.8932 0C16.9489 0 12.9375 3.96385 12.9375 8.84963C12.9375 13.7354 16.9489 17.6993 21.8932 17.6993C26.8375 17.6993 30.8489 13.7354 30.8489 8.84963C30.8489 3.96385 26.8425 0 21.8932 0ZM18.5953 15.6976C18.3758 15.5744 18.2211 15.3969 18.1563 15.0666C17.9966 14.2432 18.1463 13.7995 18.8747 13.3213C19.219 13.0945 19.2738 12.8184 19.5483 12.5472C19.6131 12.4634 19.7977 12.138 19.9175 12.1183C20.0621 12.0887 20.4663 12.0197 20.5461 11.862C20.6958 11.6598 21.0301 10.7823 21.1797 10.6935C21.4192 10.5407 21.7585 10.0624 21.509 9.78143C21.2296 9.44125 20.8355 9.43632 20.4763 9.2539C20.1569 9.09614 20.0123 8.37141 19.7678 8.1249C19.2938 7.64667 18.5704 7.36565 17.9667 7.06984C17.6424 6.94166 17.6723 6.90222 17.4178 7.15366C17.0935 7.47412 16.6146 7.06984 16.5647 6.73952C16.5647 6.63106 16.435 6.01972 16.5098 5.97535C17.2283 5.53164 16.1755 5.63517 16.0907 5.4281C15.8762 4.83648 16.6096 4.36812 17.1035 4.31882C17.6573 4.24979 17.7721 5.18159 17.9866 5.10271C18.0864 5.05341 18.0914 4.61463 18.1014 4.51602C18.1513 4.20049 18.2461 4.15119 18.5554 4.03287C18.9196 3.89975 19.199 3.73213 19.5832 3.66804C20.0222 3.53985 20.3964 3.60887 20.7357 3.32786C20.8904 3.21446 21.0051 3.39195 21.1498 3.42153C21.4691 3.48562 21.539 2.98274 21.539 2.7954C21.539 2.61298 21.5889 2.45522 21.3494 2.25801C21.035 2.01643 20.591 2.2235 20.3366 2.47001C20.0322 2.7461 19.683 2.72638 19.7827 2.24815C19.8077 2.07067 20.1919 1.86853 20.3415 1.77486C20.4912 1.68611 20.576 1.87346 20.7556 1.82909C21.0201 1.76993 21.1149 2.01643 21.4292 2.01643C21.5589 1.98685 22.0229 1.74528 21.7735 1.25226C21.8084 1.25226 21.8483 1.25226 21.8832 1.25226C21.9581 1.25226 22.0329 1.25226 22.1077 1.25226C22.2175 1.6023 21.8683 1.90304 22.0479 2.34182C22.3971 3.18981 22.6865 2.46015 23.0357 2.06574C23.1505 1.95234 23.2203 1.97699 23.4099 1.94248C23.5247 1.92276 23.6943 1.57765 23.7442 1.46919C24.5475 1.66639 25.3108 1.98685 26.0043 2.42564C25.705 2.45522 25.6301 2.37141 25.6351 2.71652C25.6351 2.84963 25.6451 3.24404 25.8447 3.27362C26.174 3.31307 26.1141 3.54478 26.4284 3.58422C26.7278 3.62366 26.5432 3.88496 26.6629 4.14133C26.7976 4.5456 25.8696 4.66886 25.69 4.72802C25.1462 4.90551 25.9445 5.69433 26.2987 5.61052C26.4135 5.58094 26.7877 5.53657 26.8126 5.40838C26.8126 5.39359 26.7378 4.97453 26.7777 4.92523C26.8375 4.85127 26.9822 4.8069 27.2067 4.93509C27.7406 5.23583 28.01 5.9507 28.6436 6.09367C28.7285 6.11339 28.8781 6.08874 28.9829 6.17256C29.0727 6.29088 29.2972 6.50288 29.0278 6.50288C28.6686 6.42399 28.479 6.53739 28.1796 6.3106C27.8703 6.07395 27.6807 5.88168 27.2716 5.87182C26.9224 5.86689 26.603 5.71898 26.2438 5.77814C26.0443 5.81265 25.8447 5.89154 25.6501 5.94577C25.4655 6.00493 25.4306 6.33032 25.241 6.36976C24.4627 6.55218 24.6323 7.28677 24.4926 7.86853C24.4377 8.09039 24.2531 8.6968 24.4577 8.89893C24.8219 9.24897 25.246 9.73213 25.7848 9.80608C26.0742 9.84552 26.7028 9.62367 26.8974 9.91454C26.9822 10.0772 27.1968 9.79622 27.2516 9.9392C27.3963 10.373 27.082 10.659 27.077 11.0682C27.077 11.6697 27.4462 11.8817 26.9473 12.4191C26.4035 12.9565 26.7727 13.6368 26.4733 14.2777C26.3137 14.6081 26.2787 15.0616 26.0393 15.2145C25.5054 15.5497 24.9316 15.8209 24.3329 16.0181C23.2702 16.3681 22.1277 16.4815 21.0151 16.3533C20.4313 16.2892 19.8526 16.1512 19.2988 15.954C19.1491 15.8998 19.0094 15.8554 18.8797 15.8061C18.7849 15.7666 18.6901 15.7223 18.5953 15.6779V15.6976ZM16.9289 14.6278C16.9289 14.6278 16.894 14.5982 16.874 14.5785C16.7343 14.4601 16.5996 14.3369 16.4699 14.2087C16.3352 14.0756 16.2055 13.9376 16.0807 13.7946C16.0558 13.7601 16.0308 13.7305 16.0059 13.7009C13.9403 11.2358 13.636 7.62202 15.3673 4.86113C15.6117 5.10271 15.2026 5.57108 15.6666 5.88661C15.8712 6.02958 16.0658 5.97042 16.0258 6.23665C15.9859 6.49302 16.2404 6.48809 16.2753 6.70994C16.3901 7.20296 17.0437 7.44454 16.6695 7.99671C16.3052 8.49466 15.9909 9.05177 16.2653 9.68776C16.3551 9.91947 16.5797 10.1561 16.7543 10.3287C17.0686 10.6442 17.0486 10.4569 17.0486 10.8513C17.0436 11.0238 17.2582 11.2013 17.2382 11.3147C17.1983 11.6302 17.1235 11.9458 17.0836 12.2564C17.0137 13.3854 17.0786 14.4947 17.9367 15.3426C17.6174 15.1504 17.3131 14.9384 17.0187 14.6968C16.9888 14.6721 16.9588 14.6475 16.9289 14.6228V14.6278Z" fill="#DC3C54"/>
<path d="M18.4452 0.640625L11.8994 17.9997H6.54589L0 0.640625H5.62787L9.22512 11.5806L12.8423 0.640625H18.4452Z" fill="white"/>
<path d="M31.8662 0.476562H36.7008V13.1471H40.5874V17.5793H31.8662V0.476562Z" fill="white"/>
<path d="M41.7646 0.476562H52.7011V4.64254H46.5992V6.94493H52.6312V10.894H46.5992V13.4133H52.7011V17.5793H41.7646V0.476562Z" fill="white"/>
<path d="M54.373 0.476562H59.1627L64.7008 9.82414V0.476562H69.4007V17.5793H64.5661L59.053 8.25142V17.5793H54.373V0.476562Z" fill="white"/>
<path d="M71.4111 0.476562H78.5757C80.3519 0.476562 81.8486 0.846324 83.061 1.59078C84.2734 2.33523 85.1665 3.39028 85.7403 4.7658C85.9797 5.36235 86.1593 6.00327 86.2841 6.69349C86.4038 7.37878 86.4637 8.15775 86.4637 9.03038C86.4637 9.90302 86.4038 10.6869 86.2841 11.3821C86.1643 12.0772 85.9847 12.7231 85.7403 13.3196C85.1665 14.6902 84.2734 15.7453 83.061 16.4798C81.8486 17.2144 80.3519 17.5842 78.5757 17.5842H71.4111V0.476562ZM77.7874 13.1964C78.6156 13.1964 79.2842 13.0435 79.7981 12.7379C80.3119 12.4322 80.6961 11.9885 80.9506 11.4067C81.0853 11.1158 81.1801 10.7806 81.235 10.401C81.2898 10.0213 81.3148 9.56777 81.3148 9.03038C81.3148 8.493 81.2849 8.06407 81.225 7.68445C81.1651 7.30483 81.0753 6.95972 80.9556 6.65405C80.7011 6.0575 80.3169 5.60886 79.813 5.30812C79.3091 5.00738 78.6356 4.85947 77.7924 4.85947H76.2557V13.1914H77.7924L77.7874 13.1964Z" fill="white"/>
<path d="M97.6941 14.7691H91.9066L91.1382 17.5793H86.124L91.1831 0.476562H98.3926L103.457 17.5793H98.4624L97.6941 14.7691ZM96.6563 10.9679L94.8253 4.25799H94.7804L92.9493 10.9679H96.6563Z" fill="white"/>
<path d="M106.076 10.2136L100.992 0.476562H106.191L108.496 5.34756L110.826 0.476562H116L110.936 10.2136V17.5793H106.076V10.2136Z" fill="white"/>
</g>
<path d="M132.72 9.59834V10.2715C132.72 14.4848 129.482 18 124.236 18C118.79 18 115 13.9861 115 9C115 4.01385 118.79 0 124.136 0C127.399 0 130.235 1.69529 131.691 4.2133L130.511 4.91136C129.356 2.71745 126.897 1.27147 124.136 1.27147C119.518 1.27147 116.33 4.71191 116.33 9C116.33 13.2881 119.518 16.7285 124.236 16.7285C128.503 16.7285 131.088 14.1108 131.364 10.8449H123.91V9.59834H132.72Z" fill="white"/>
<path d="M147.147 17.7258L142.931 10.5706H137.384V17.7258H136.054V0.274238H142.981C145.842 0.274238 148.176 2.5928 148.176 5.4349C148.176 7.80332 146.545 9.79778 144.311 10.3961L148.678 17.7258H147.147ZM137.384 1.52078V9.3241H142.981C145.114 9.3241 146.846 7.57895 146.846 5.4349C146.846 3.26593 145.114 1.52078 142.981 1.52078H137.384Z" fill="white"/>
<path d="M159.503 18C154.433 18 150.442 13.9861 150.442 9C150.442 4.01385 154.433 0 159.503 0C164.573 0 168.563 4.01385 168.563 9C168.563 13.9861 164.573 18 159.503 18ZM159.503 16.7285C163.845 16.7285 167.233 13.2881 167.233 9C167.233 4.71191 163.845 1.27147 159.503 1.27147C155.161 1.27147 151.772 4.71191 151.772 9C151.772 13.2881 155.161 16.7285 159.503 16.7285Z" fill="white"/>
<path d="M177.989 18C174.123 18 171.563 15.5817 171.563 11.892V0.274238H172.894V11.892C172.894 14.7341 174.676 16.7285 177.989 16.7285C181.327 16.7285 183.109 14.7341 183.109 11.892V0.274238H184.439V11.892C184.439 15.5817 181.854 18 177.989 18Z" fill="white"/>
<path d="M194.528 0.274238C197.691 0.274238 200 2.5928 200 5.68421C200 8.75069 197.691 11.0693 194.528 11.0693H189.885V17.7258H188.555V0.274238H194.528ZM194.528 9.82271C196.938 9.82271 198.67 8.07756 198.67 5.68421C198.67 3.26593 196.938 1.52078 194.528 1.52078H189.885V9.82271H194.528Z" fill="white"/>
<defs>
<clipPath id="clip0_974_2891">
<rect width="116" height="18" fill="white"/>
</clipPath>
</defs>
</svg>
