<svg width="233" height="37" viewBox="0 0 233 37" fill="none" xmlns="http://www.w3.org/2000/svg">
<g clip-path="url(#clip0_47_6374)">
<path d="M43.8802 0C33.9702 0 25.9302 8.04 25.9302 17.95C25.9302 27.86 33.9702 35.9 43.8802 35.9C53.7902 35.9 61.8302 27.86 61.8302 17.95C61.8302 8.04 53.8002 0 43.8802 0ZM37.2702 31.84C36.8302 31.59 36.5202 31.23 36.3902 30.56C36.0702 28.89 36.3702 27.99 37.8302 27.02C38.5202 26.56 38.6302 26 39.1802 25.45C39.3102 25.28 39.6802 24.62 39.9202 24.58C40.2102 24.52 41.0202 24.38 41.1802 24.06C41.4802 23.65 42.1502 21.87 42.4502 21.69C42.9302 21.38 43.6102 20.41 43.1102 19.84C42.5502 19.15 41.7602 19.14 41.0402 18.77C40.4002 18.45 40.1102 16.98 39.6202 16.48C38.6702 15.51 37.2202 14.94 36.0102 14.34C35.3602 14.08 35.4202 14 34.9102 14.51C34.2602 15.16 33.3002 14.34 33.2002 13.67C33.2002 13.45 32.9402 12.21 33.0902 12.12C34.5302 11.22 32.4202 11.43 32.2502 11.01C31.8202 9.81 33.2902 8.86 34.2802 8.76C35.3902 8.62 35.6202 10.51 36.0502 10.35C36.2502 10.25 36.2602 9.36 36.2802 9.16C36.3802 8.52 36.5702 8.42 37.1902 8.18C37.9202 7.91 38.4802 7.57 39.2502 7.44C40.1302 7.18 40.8802 7.32 41.5602 6.75C41.8702 6.52 42.1002 6.88 42.3902 6.94C43.0302 7.07 43.1702 6.05 43.1702 5.67C43.1702 5.3 43.2702 4.98 42.7902 4.58C42.1602 4.09 41.2702 4.51 40.7602 5.01C40.1502 5.57 39.4502 5.53 39.6502 4.56C39.7002 4.2 40.4702 3.79 40.7702 3.6C41.0702 3.42 41.2402 3.8 41.6002 3.71C42.1302 3.59 42.3202 4.09 42.9502 4.09C43.2102 4.03 44.1402 3.54 43.6402 2.54C43.7102 2.54 43.7902 2.54 43.8602 2.54C44.0102 2.54 44.1602 2.54 44.3102 2.54C44.5302 3.25 43.8302 3.86 44.1902 4.75C44.8902 6.47 45.4702 4.99 46.1702 4.19C46.4002 3.96 46.5402 4.01 46.9202 3.94C47.1502 3.9 47.4902 3.2 47.5902 2.98C49.2002 3.38 50.7302 4.03 52.1202 4.92C51.5202 4.98 51.3702 4.81 51.3802 5.51C51.3802 5.78 51.4002 6.58 51.8002 6.64C52.4602 6.72 52.3402 7.19 52.9702 7.27C53.5702 7.35 53.2002 7.88 53.4402 8.4C53.7102 9.22 51.8502 9.47 51.4902 9.59C50.4002 9.95 52.0002 11.55 52.7102 11.38C52.9402 11.32 53.6902 11.23 53.7402 10.97C53.7402 10.94 53.5902 10.09 53.6702 9.99C53.7902 9.84 54.0802 9.75 54.5302 10.01C55.6002 10.62 56.1402 12.07 57.4102 12.36C57.5802 12.4 57.8802 12.35 58.0902 12.52C58.2702 12.76 58.7202 13.19 58.1802 13.19C57.4602 13.03 57.0802 13.26 56.4802 12.8C55.8602 12.32 55.4802 11.93 54.6602 11.91C53.9602 11.9 53.3202 11.6 52.6002 11.72C52.2002 11.79 51.8002 11.95 51.4102 12.06C51.0402 12.18 50.9702 12.84 50.5902 12.92C49.0302 13.29 49.3702 14.78 49.0902 15.96C48.9802 16.41 48.6102 17.64 49.0202 18.05C49.7502 18.76 50.6002 19.74 51.6802 19.89C52.2602 19.97 53.5202 19.52 53.9102 20.11C54.0802 20.44 54.5102 19.87 54.6202 20.16C54.9102 21.04 54.2802 21.62 54.2702 22.45C54.2702 23.67 55.0102 24.1 54.0102 25.19C52.9202 26.28 53.6602 27.66 53.0602 28.96C52.7402 29.63 52.6702 30.55 52.1902 30.86C51.1202 31.54 49.9702 32.09 48.7702 32.49C46.6402 33.2 44.3502 33.43 42.1202 33.17C40.9502 33.04 39.7902 32.76 38.6802 32.36C38.3802 32.25 38.1002 32.16 37.8402 32.06C37.6502 31.98 37.4602 31.89 37.2702 31.8V31.84ZM33.9302 29.67C33.9302 29.67 33.8602 29.61 33.8202 29.57C33.5402 29.33 33.2702 29.08 33.0102 28.82C32.7402 28.55 32.4802 28.27 32.2302 27.98C32.1802 27.91 32.1302 27.85 32.0802 27.79C27.9402 22.79 27.3302 15.46 30.8002 9.86C31.2902 10.35 30.4702 11.3 31.4002 11.94C31.8102 12.23 32.2002 12.11 32.1202 12.65C32.0402 13.17 32.5502 13.16 32.6202 13.61C32.8502 14.61 34.1602 15.1 33.4102 16.22C32.6802 17.23 32.0502 18.36 32.6002 19.65C32.7802 20.12 33.2302 20.6 33.5802 20.95C34.2102 21.59 34.1702 21.21 34.1702 22.01C34.1602 22.36 34.5902 22.72 34.5502 22.95C34.4702 23.59 34.3202 24.23 34.2402 24.86C34.1002 27.15 34.2302 29.4 35.9502 31.12C35.3102 30.73 34.7002 30.3 34.1102 29.81C34.0502 29.76 33.9902 29.71 33.9302 29.66V29.67Z" fill="#DC3C54"/>
<path d="M36.97 1.2998L23.85 36.5098H13.12L0 1.2998H11.28L18.49 23.4898L25.74 1.2998H36.97Z" fill="#0B1215"/>
<path d="M63.8701 0.970215H73.5601V26.6702H81.3501V35.6602H63.8701V0.970215Z" fill="#0B1215"/>
<path d="M83.71 0.970215H105.63V9.42021H93.4V14.0902H105.49V22.1002H93.4V27.2102H105.63V35.6602H83.71V0.970215Z" fill="#0B1215"/>
<path d="M108.98 0.970215H118.58L129.68 19.9302V0.970215H139.1V35.6602H129.41L118.36 16.7402V35.6602H108.98V0.970215Z" fill="#0B1215"/>
<path d="M143.13 0.970215H157.49C161.05 0.970215 164.05 1.72021 166.48 3.23021C168.91 4.74021 170.7 6.88021 171.85 9.67021C172.33 10.8802 172.69 12.1802 172.94 13.5802C173.18 14.9702 173.3 16.5502 173.3 18.3202C173.3 20.0902 173.18 21.6802 172.94 23.0902C172.7 24.5002 172.34 25.8102 171.85 27.0202C170.7 29.8002 168.91 31.9402 166.48 33.4302C164.05 34.9202 161.05 35.6702 157.49 35.6702H143.13V0.970215ZM155.91 26.7702C157.57 26.7702 158.91 26.4602 159.94 25.8402C160.97 25.2202 161.74 24.3202 162.25 23.1402C162.52 22.5502 162.71 21.8702 162.82 21.1002C162.93 20.3302 162.98 19.4102 162.98 18.3202C162.98 17.2302 162.92 16.3602 162.8 15.5902C162.68 14.8202 162.5 14.1202 162.26 13.5002C161.75 12.2902 160.98 11.3802 159.97 10.7702C158.96 10.1602 157.61 9.86021 155.92 9.86021H152.84V26.7602H155.92L155.91 26.7702Z" fill="#0B1215"/>
<path d="M195.81 29.9602H184.21L182.67 35.6602H172.62L182.76 0.970215H197.21L207.36 35.6602H197.35L195.81 29.9602ZM193.73 22.2502L190.06 8.64021H189.97L186.3 22.2502H193.73Z" fill="#0B1215"/>
<path d="M212.61 20.7202L202.42 0.970215H212.84L217.46 10.8502L222.13 0.970215H232.5L222.35 20.7202V35.6602H212.61V20.7202Z" fill="#0B1215"/>
</g>
<defs>
<clipPath id="clip0_47_6374">
<rect width="232.5" height="36.51" fill="white"/>
</clipPath>
</defs>
</svg>
